Coordinates
version=1
nRows=21
nColumns=22
inDegrees=yes

Units are S.I. units (second, meters, Newtons, ...)
If the header above contains a line with 'inDegrees', this indicates whether rotational values are in degrees (yes) or radians (no).

endheader
time	pelvis_tilt	pelvis_list	pelvis_rotation	pelvis_tx	pelvis_ty	pelvis_tz	hip_flexion_r	hip_adduction_r	hip_rotation_r	knee_angle_r	ankle_angle_r	subtalar_angle_r	hip_flexion_l	hip_adduction_l	hip_rotation_l	knee_angle_l	ankle_angle_l	subtalar_angle_l	lumbar_extension	lumbar_bending	lumbar_rotation
      0.01000000	     -0.86240218	      3.39526536	    177.71522246	      0.12433109	      1.02154119	      0.82505545	      2.24829250	      5.50967642	     -3.30031182	    -11.68965416	      8.84491795	     -4.11027404	      2.29741335	     -2.28891640	     -4.42553830	    -11.40056293	     10.41762941	     -2.00540737	    -10.44716760	      2.78305157	      3.22174895
      0.02000000	     -0.86026921	      3.39569801	    177.71593410	      0.12435316	      1.02153993	      0.82504177	      2.25109310	      5.51118930	     -3.30110931	    -11.68787296	      8.84500250	     -4.11215257	      2.29992225	     -2.29022006	     -4.42698148	    -11.39761986	     10.41690643	     -2.00772045	    -10.45244590	      2.78094409	      3.22149879
      0.03000000	     -0.85806014	      3.39612177	    177.71730679	      0.12437312	      1.02153903	      0.82502272	      2.25401647	      5.51313776	     -3.30168070	    -11.68683353	      8.84507219	     -4.11391938	      2.30207232	     -2.29193697	     -4.42807783	    -11.39420821	     10.41562658	     -2.00980675	    -10.45726324	      2.77760965	      3.22099244
      0.04000000	     -0.85545134	      3.39638787	    177.71890615	      0.12439540	      1.02153724	      0.82499982	      2.25785299	      5.51501735	     -3.30219425	    -11.68594723	      8.84501176	     -4.11579425	      2.30462984	     -2.29371817	     -4.42871469	    -11.38978987	     10.41351486	     -2.01183242	    -10.46315117	      2.77351629	      3.22004751
      0.05000000	     -0.84922915	      3.39121479	    177.72025868	      0.12442947	      1.02153474	      0.82498182	      2.27340388	      5.51096231	     -3.30504983	    -11.69881541	      8.83972301	     -4.13574339	      2.30714326	     -2.28814513	     -4.42015170	    -11.37599337	     10.38366746	     -2.03012599	    -10.46698840	      2.76498385	      3.20923096
      0.06000000	     -0.84602563	      3.39105321	    177.72283820	      0.12445397	      1.02153358	      0.82495443	      2.27655825	      5.51331046	     -3.30600920	    -11.69536083	      8.84008737	     -4.13657399	      2.31076238	     -2.28972695	     -4.42019492	    -11.37212333	     10.38358288	     -2.03088625	    -10.47408601	      2.75920598	      3.20971054
      0.07000000	     -0.84257615	      3.39061317	    177.72540922	      0.12447861	      1.02153277	      0.82492683	      2.28035916	      5.51511377	     -3.30683550	    -11.69241404	      8.83986291	     -4.13745776	      2.31449314	     -2.29128308	     -4.41967378	    -11.36810526	     10.38277260	     -2.03146089	    -10.48228627	      2.75327218	      3.20931937
      0.08000000	     -0.83925434	      3.38991995	    177.72809360	      0.12450118	      1.02153261	      0.82489978	      2.28428068	      5.51671749	     -3.30760882	    -11.69021346	      8.83896997	     -4.13844216	      2.31822312	     -2.29228213	     -4.41854104	    -11.36438911	     10.38124040	     -2.03190042	    -10.49079256	      2.74719120	      3.20809758
      0.09000000	     -0.83587623	      3.38896364	    177.73100019	      0.12452409	      1.02153237	      0.82487289	      2.28844685	      5.51783625	     -3.30848467	    -11.68837524	      8.83743111	     -4.13956959	      2.32211449	     -2.29317274	     -4.41681070	    -11.36095397	     10.37905347	     -2.03226567	    -10.49999562	      2.74070337	      3.20600918
      0.10000000	     -0.83233567	      3.38751940	    177.73440412	      0.12454536	      1.02153277	      0.82484612	      2.29277253	      5.51858722	     -3.30969174	    -11.68691963	      8.83506227	     -4.14100171	      2.32630746	     -2.29361716	     -4.41421353	    -11.35801467	     10.37597067	     -2.03265321	    -10.51002119	      2.73351393	      3.20272766
      0.11000000	     -0.83216554	      3.37257479	    177.75273296	      0.12458044	      1.02154215	      0.82484810	      2.30020640	      5.50331416	     -3.32185437	    -11.69620072	      8.81312719	     -4.15504553	      2.33546869	     -2.27754541	     -4.38469407	    -11.36594607	     10.34642636	     -2.03608588	    -10.52465945	      2.71263064	      3.17215203
      0.12000000	     -0.82737567	      3.37254722	    177.75355852	      0.12458844	      1.02154127	      0.82482505	      2.30348659	      5.50480943	     -3.32505675	    -11.69137742	      8.81412206	     -4.15608744	      2.33882441	     -2.27925490	     -4.38436355	    -11.36106986	     10.34619300	     -2.03643712	    -10.53255772	      2.70898492	      3.17113562
      0.13000000	     -0.82018129	      3.36580910	    177.77512760	      0.12458080	      1.02153698	      0.82483582	      2.30667009	      5.49747038	     -3.36325903	    -11.68216090	      8.81640735	     -4.17765194	      2.34675663	     -2.27186903	     -4.35644387	    -11.35574425	     10.32995173	     -2.04412000	    -10.53280554	      2.70039623	      3.14283087
      0.14000000	     -0.81621896	      3.36604461	    177.77645006	      0.12458294	      1.02153695	      0.82481097	      2.31002153	      5.49960640	     -3.36357837	    -11.68058476	      8.81648417	     -4.17814421	      2.34970599	     -2.27428800	     -4.35597813	    -11.35300779	     10.33026094	     -2.04444017	    -10.54132203	      2.69582617	      3.14204890
      0.15000000	     -0.81238285	      3.36604849	    177.77775360	      0.12458427	      1.02153687	      0.82478707	      2.31335238	      5.50142669	     -3.36404947	    -11.67909415	      8.81647751	     -4.17861346	      2.35280101	     -2.27605319	     -4.35519623	    -11.35065923	     10.33016858	     -2.04473569	    -10.54968258	      2.69157904	      3.14078979
      0.16000000	     -0.80842200	      3.36581262	    177.77909712	      0.12458373	      1.02153567	      0.82476463	      2.31674311	      5.50284063	     -3.36466837	    -11.67765666	      8.81644694	     -4.17904914	      2.35600550	     -2.27753922	     -4.35412081	    -11.34839445	     10.32968264	     -2.04495137	    -10.55795332	      2.68748905	      3.13927153
      0.17000000	     -0.80427121	      3.36534565	    177.78049326	      0.12458225	      1.02153384	      0.82474322	      2.32031413	      5.50405251	     -3.36543041	    -11.67626090	      8.81640670	     -4.17946238	      2.35934104	     -2.27859362	     -4.35274431	    -11.34599600	     10.32881167	     -2.04503811	    -10.56616029	      2.68354058	      3.13768963
      0.18000000	     -0.79991391	      3.36464092	    177.78194068	      0.12457989	      1.02153119	      0.82472261	      2.32409932	      5.50494363	     -3.36630570	    -11.67492210	      8.81634852	     -4.17987135	      2.36277823	     -2.27931826	     -4.35104726	    -11.34334788	     10.32757472	     -2.04495268	    -10.57420750	      2.67977199	      3.13623593
      0.19000000	     -0.79532400	      3.36368708	    177.78344884	      0.12457650	      1.02152782	      0.82470273	      2.32810924	      5.50557192	     -3.36727539	    -11.67363278	      8.81626167	     -4.18029428	      2.36629479	     -2.27965490	     -4.34903179	    -11.34038918	     10.32600334	     -2.04466256	    -10.58201859	      2.67620416	      3.13507504
      0.20000000	     -0.79047967	      3.36248094	    177.78501706	      0.12457182	      1.02152382	      0.82468333	      2.33232883	      5.50589424	     -3.36832342	    -11.67237108	      8.81614461	     -4.18075006	      2.36987300	     -2.27968506	     -4.34670042	    -11.33710662	     10.32413293	     -2.04414692	    -10.58951139	      2.67282729	      3.13433137
      0.21000000	     -0.78537504	      3.36102361	    177.78662134	      0.12456555	      1.02151934	      0.82466420	      2.33672570	      5.50595298	     -3.36944255	    -11.67111072	      8.81601338	     -4.18125519	      2.37350105	     -2.27940844	     -4.34405905	    -11.33353465	     10.32199548	     -2.04339444	    -10.59660001	      2.66963254	      3.13408548
